<?xml version="1.0" encoding="UTF-8"?>
<svg width="36px" height="36px" viewBox="0 0 36 36" version="1.1" xmlns="http://www.w3.org/2000/svg" xmlns:xlink="http://www.w3.org/1999/xlink">
    <!-- Generator: Sketch 51.2 (57519) - http://www.bohemiancoding.com/sketch -->
    <title>Slice</title>
    <desc>Created with Sketch.</desc>
    <defs></defs>
    <g id="Page-1" stroke="none" stroke-width="1" fill="none" fill-rule="evenodd">
        <g id="Menu">
            <rect id="Rectangle" x="0" y="0" width="36" height="36"></rect>
            <rect id="Rectangle-3-Copy" fill="#585858" x="3" y="17" width="32" height="2" rx="1"></rect>
            <path d="M-0.136798985,14.1976331 L8.86320102,14.1976331 C9.41548577,14.1976331 9.86320102,14.6453484 9.86320102,15.1976331 L9.86320102,15.1976331 C9.86320102,15.7499179 9.41548577,16.1976331 8.86320102,16.1976331 L-0.136798985,16.1976331 L-0.136798985,14.1976331 Z" id="Rectangle-3-Copy-3" fill="#585858" transform="translate(4.863201, 15.197633) rotate(-45.000000) translate(-4.863201, -15.197633) "></path>
            <path d="M-0.136724939,19.8555222 L8.86327506,19.8555222 C9.41555981,19.8555222 9.86327506,20.3032375 9.86327506,20.8555222 L9.86327506,20.8555222 C9.86327506,21.407807 9.41555981,21.8555222 8.86327506,21.8555222 L-0.136724939,21.8555222 L-0.136724939,19.8555222 Z" id="Rectangle-3-Copy-4" fill="#585858" transform="translate(4.863275, 20.855522) scale(1, -1) rotate(-45.000000) translate(-4.863275, -20.855522) "></path>
        </g>
    </g>
</svg>