<?xml version="1.0" encoding="UTF-8"?>
<svg width="1352px" height="1024px" viewBox="0 0 1352 1024" version="1.1" xmlns="http://www.w3.org/2000/svg" xmlns:xlink="http://www.w3.org/1999/xlink">
    <!-- Generator: Sketch 51.2 (57519) - http://www.bohemiancoding.com/sketch -->
    <title>BG </title>
    <desc>Created with Sketch.</desc>
    <defs>
        <rect id="path-1" x="0" y="0" width="1436" height="1027"></rect>
        <path d="M929.564308,0 C922.436308,0 915.599385,1.22523077 909.188923,3.39138462 C873.934769,7.38523077 841.104,24.3150769 817.391385,51.3852308 L526.24,383.808615 L235.081846,51.3852308 C206.617231,18.8726154 165,0.927384615 121.812308,2.53169231 L118.021538,2.66707692 C110.981538,0.981538462 103.677538,0 96.1298462,0 L0,0 L0,1056 L190.08,1056 L190.08,288.646769 L823.064,1007.34277 C850.303385,1038.27815 889.537846,1056 930.762462,1056 L959.870154,1056 L960.96,1056 L1056,1056 L1056,0 L929.564308,0 Z M652.059692,527.465231 L862.4,288.646769 L865.92,288.646769 L865.92,771.638154 L652.059692,527.465231 Z" id="path-3"></path>
        <linearGradient x1="0%" y1="50%" x2="100%" y2="50%" id="linearGradient-5">
            <stop stop-color="#C30070" offset="0%"></stop>
            <stop stop-color="#6B49FF" offset="100%"></stop>
        </linearGradient>
        <path d="M937.486731,0 C930.297981,0 923.402788,1.23567308 916.937692,3.42028846 C881.383077,7.44817308 848.2725,24.5223077 824.357788,51.8231731 L530.725,387.079712 L237.085385,51.8231731 C208.378173,19.0334615 166.40625,0.935288462 122.850481,2.55326923 L119.027404,2.68980769 C111.927404,0.989903846 104.561154,0 96.9491346,0 L0,0 L0,1065 L191.7,1065 L191.7,291.106827 L830.07875,1015.92808 C857.550288,1047.12712 897.119135,1065 938.695096,1065 L968.050865,1065 L969.15,1065 L1065,1065 L1065,0 L937.486731,0 Z M657.617019,531.960673 L869.75,291.106827 L873.3,291.106827 L873.3,778.214615 L657.617019,531.960673 Z" id="path-6"></path>
    </defs>
    <g id="Page-1" stroke="none" stroke-width="1" fill="none" fill-rule="evenodd">
        <g id="Home">
            <g id="BG-">
                <g id="Group-20-Copy-2-+-Group-20-Copy-3-Mask">
                    <mask id="mask-2" fill="white">
                        <use xlink:href="#path-1"></use>
                    </mask>
                    <g id="Mask"></g>
                    <g id="Group-20-Copy-2" opacity="0.071016" mask="url(#mask-2)">
                        <g transform="translate(-408.000000, 164.000000)">
                            <g id="Group-9">
                                <path d="M1056,1056 L959.870154,1056 C907.984,1056 865.92,1013.936 865.92,962.049846 L865.92,63.6443077 C865.92,28.4916923 894.418462,0 929.564308,0 L1056,0 L1056,1056 Z" id="Fill-3" fill="#515151"></path>
                                <path d="M95.04,3.52 L121.812308,2.53169231 C165.006769,0.927384615 206.610462,18.8793846 235.081846,51.3852308 L865.92,771.638154 L957.44,774.4 L960.96,1056 L930.762462,1056 C889.537846,1056 850.303385,1038.27815 823.064,1007.34277 L190.08,288.64 L91.5132308,288.64 L95.04,3.52 Z" id="Fill-5" fill="#515151"></path>
                                <path d="M960.96,288.640677 L957.44,3.52067692 L930.660923,2.5256 C887.48,0.928061538 845.869538,18.8732923 817.391385,51.3859077 L468.119385,450.168062 L590.980923,596.809908 L862.4,288.640677 L960.96,288.640677 Z" id="Fill-7" fill="#515151"></path>
                            </g>
                            <g id="Group-12">
                                <mask id="mask-4" fill="white">
                                    <use xlink:href="#path-3"></use>
                                </mask>
                                <g id="Clip-11"></g>
                                <path d="M929.564308,0 C922.436308,0 915.599385,1.22523077 909.188923,3.39138462 C873.934769,7.38523077 841.104,24.3150769 817.391385,51.3852308 L526.24,383.808615 L235.081846,51.3852308 C206.617231,18.8726154 165,0.927384615 121.812308,2.53169231 L118.021538,2.66707692 C110.981538,0.981538462 103.677538,0 96.1298462,0 L0,0 L0,1056 L190.08,1056 L190.08,288.646769 L823.064,1007.34277 C850.303385,1038.27815 889.537846,1056 930.762462,1056 L959.870154,1056 L960.96,1056 L1056,1056 L1056,0 L929.564308,0 Z M652.059692,527.465231 L862.4,288.646769 L865.92,288.646769 L865.92,771.638154 L652.059692,527.465231 Z" id="Fill-10" fill="url(#linearGradient-5)" mask="url(#mask-4)"></path>
                            </g>
                        </g>
                    </g>
                    <g id="Group-20-Copy-3" opacity="0.071016" mask="url(#mask-2)">
                        <g transform="translate(819.500000, 106.500000) rotate(-180.000000) translate(-819.500000, -106.500000) translate(287.000000, -426.000000)">
                            <g id="Group-9">
                                <path d="M191.700683,1065 L0.000682692308,1065 L0.000682692308,0 L96.9498173,0 C149.278183,0 191.700683,42.4225 191.700683,94.7508654 L191.700683,1065 Z" id="Fill-1" fill="#515151"></path>
                                <path d="M1065,1065 L968.050865,1065 C915.7225,1065 873.3,1022.5775 873.3,970.249135 L873.3,64.1867308 C873.3,28.7345192 902.041346,0 937.486731,0 L1065,0 L1065,1065 Z" id="Fill-3" fill="#515151"></path>
                                <path d="M95.85,3.55 L122.850481,2.55326923 C166.413077,0.935288462 208.371346,19.0402885 237.085385,51.8231731 L873.3,778.214615 L965.6,781 L969.15,1065 L938.695096,1065 C897.119135,1065 857.550288,1047.12712 830.07875,1015.92808 L191.7,291.1 L92.2931731,291.1 L95.85,3.55 Z" id="Fill-5" fill="#515151"></path>
                                <path d="M969.15,291.100683 L965.6,3.55068269 L938.592692,2.547125 C895.04375,0.935971154 853.078654,19.0341442 824.357788,51.8238558 L472.109038,454.004721 L596.017692,601.896356 L869.75,291.100683 L969.15,291.100683 Z" id="Fill-7" fill="#515151"></path>
                            </g>
                            <g id="Group-12">
                                <mask id="mask-7" fill="white">
                                    <use xlink:href="#path-6"></use>
                                </mask>
                                <g id="Clip-11"></g>
                                <path d="M937.486731,0 C930.297981,0 923.402788,1.23567308 916.937692,3.42028846 C881.383077,7.44817308 848.2725,24.5223077 824.357788,51.8231731 L530.725,387.079712 L237.085385,51.8231731 C208.378173,19.0334615 166.40625,0.935288462 122.850481,2.55326923 L119.027404,2.68980769 C111.927404,0.989903846 104.561154,0 96.9491346,0 L0,0 L0,1065 L191.7,1065 L191.7,291.106827 L830.07875,1015.92808 C857.550288,1047.12712 897.119135,1065 938.695096,1065 L968.050865,1065 L969.15,1065 L1065,1065 L1065,0 L937.486731,0 Z M657.617019,531.960673 L869.75,291.106827 L873.3,291.106827 L873.3,778.214615 L657.617019,531.960673 Z" id="Fill-10" fill="url(#linearGradient-5)" mask="url(#mask-7)"></path>
                            </g>
                        </g>
                    </g>
                </g>
            </g>
        </g>
    </g>
</svg>
