<?xml version="1.0" encoding="UTF-8"?>
<svg width="24px" height="24px" viewBox="0 0 24 24" version="1.1" xmlns="http://www.w3.org/2000/svg" xmlns:xlink="http://www.w3.org/1999/xlink">
    <!-- Generator: Sketch 51.2 (57519) - http://www.bohemiancoding.com/sketch -->
    <title>Group 4 Copy</title>
    <desc>Created with Sketch.</desc>
    <defs></defs>
    <g id="Page-1" stroke="none" stroke-width="1" fill="none" fill-rule="evenodd">
        <g id="Group-4-Copy" transform="translate(-192.000000, 0.000000)">
            <g id="behance-big-logo" transform="translate(192.000000, 0.000000)">
                <rect id="Rectangle-5" x="0" y="0" width="24" height="24"></rect>
                <path d="M9.47403758,11.0894697 C9.47403758,11.0894697 11.7488768,10.9090939 11.7488768,8.23933194 C11.7488768,5.57272651 9.88559499,4.01157411 7.52858455,4.01157411 L0,4.01157411 L0,19.461762 L7.0685762,19.461762 C7.0685762,19.461762 12.2652025,19.3361002 12.2652025,14.7858205 C12.2652025,14.7858205 12.4720334,11.0894697 9.47403758,11.0894697 Z M7.52858455,7.10146138 C7.52858455,7.10146138 8.49695198,7.05185804 8.49695198,8.60329019 C8.49695198,10.1538706 7.96278914,10.1917495 7.25987474,10.1917495 L3.09038831,10.1917495 L3.09038831,7.10146138 L7.52858455,7.10146138 Z M7.32946973,16.3719749 C6.04469311,16.3719749 3.09038831,16.3719749 3.09038831,16.3719749 L3.09038831,12.5093278 L7.52858455,12.5093278 C7.52858455,12.5093278 9.09915658,12.5370355 9.09915658,14.6042422 C9.09915658,16.3289854 7.98157829,16.3719749 7.32946973,16.3719749 Z" id="Shape" fill="#000000" fill-rule="nonzero"></path>
                <path d="M18.5824134,8.11286848 C12.8493194,8.11286848 12.853929,13.8221127 12.853929,13.8221127 C12.853929,13.8221127 12.4580042,19.5434322 18.5824134,19.5434322 C18.5824134,19.5434322 23.683691,19.461762 23.683691,15.5991649 L21.0611775,15.5991649 C21.0611775,15.5991649 21.0549144,17.1157244 18.5793069,17.1684843 C17.7248768,17.1868225 16.2247015,16.999382 16.2247015,14.8267557 L23.9507474,14.8267557 C23.9507474,14.8268058 24.617737,8.11286848 18.5824134,8.11286848 Z M20.908939,12.5093278 L16.0106555,12.5093278 C16.0106555,12.5093278 16.3363841,10.2929102 18.6409854,10.2929102 C20.9432317,10.2929102 20.908939,12.5093278 20.908939,12.5093278 Z" id="Shape" fill="#000000" fill-rule="nonzero"></path>
                <rect id="Rectangle-path" fill="#000000" fill-rule="nonzero" x="15.4522923" y="4.78433403" width="6.1805261" height="2.31712735"></rect>
            </g>
        </g>
    </g>
</svg>