<?xml version="1.0" encoding="UTF-8"?>
<svg width="48px" height="48px" viewBox="0 0 48 48" version="1.1" xmlns="http://www.w3.org/2000/svg" xmlns:xlink="http://www.w3.org/1999/xlink">
    <!-- Generator: Sketch 51.2 (57519) - http://www.bohemiancoding.com/sketch -->
    <title>LOGO-ic</title>
    <desc>Created with Sketch.</desc>
    <defs>
        <path d="M42.2529231,0 C41.9289231,0 41.6181538,0.0556923077 41.3267692,0.154153846 C39.7243077,0.335692308 38.232,1.10523077 37.1541538,2.33569231 L23.92,17.4458462 L10.6855385,2.33569231 C9.39169231,0.857846154 7.5,0.0421538462 5.53692308,0.115076923 L5.36461538,0.121230769 C5.04461538,0.0446153846 4.71261538,0 4.36953846,0 L0,0 L0,48 L8.64,48 L8.64,13.1203077 L37.412,45.7883077 C38.6501538,47.1944615 40.4335385,48 42.3073846,48 L43.6304615,48 L43.68,48 L48,48 L48,0 L42.2529231,0 Z M29.6390769,23.9756923 L39.2,13.1203077 L39.36,13.1203077 L39.36,35.0744615 L29.6390769,23.9756923 Z" id="path-1"></path>
        <linearGradient x1="0%" y1="50%" x2="100%" y2="50%" id="linearGradient-3">
            <stop stop-color="#C30070" offset="0%"></stop>
            <stop stop-color="#6B49FF" offset="100%"></stop>
        </linearGradient>
    </defs>
    <g id="Page-1" stroke="none" stroke-width="1" fill="none" fill-rule="evenodd">
        <g id="Home" transform="translate(-36.000000, -40.000000)">
            <g id="Menu">
                <g id="LOGO-ic" transform="translate(36.000000, 40.000000)">
                    <g id="Group-9" fill="#515151">
                        <path d="M8.64003077,48 L3.07692308e-05,48 L3.07692308e-05,0 L4.36956923,0 C6.72803077,0 8.64003077,1.912 8.64003077,4.27046154 L8.64003077,48 Z" id="Fill-1"></path>
                        <path d="M48,48 L43.6304615,48 C41.272,48 39.36,46.088 39.36,43.7295385 L39.36,2.89292308 C39.36,1.29507692 40.6553846,0 42.2529231,0 L48,0 L48,48 Z" id="Fill-3"></path>
                        <path d="M4.32,0.16 L5.53692308,0.115076923 C7.50030769,0.0421538462 9.39138462,0.858153846 10.6855385,2.33569231 L39.36,35.0744615 L43.52,35.2 L43.68,48 L42.3073846,48 C40.4335385,48 38.6501538,47.1944615 37.412,45.7883077 L8.64,13.12 L4.15969231,13.12 L4.32,0.16 Z" id="Fill-5"></path>
                        <path d="M43.68,13.1200308 L43.52,0.160030769 L42.3027692,0.1148 C40.34,0.0421846154 38.4486154,0.857876923 37.1541538,2.33572308 L21.2781538,20.4621846 L26.8627692,27.1277231 L39.2,13.1200308 L43.68,13.1200308 Z" id="Fill-7"></path>
                    </g>
                    <g id="Group-12">
                        <mask id="mask-2" fill="white">
                            <use xlink:href="#path-1"></use>
                        </mask>
                        <g id="Clip-11"></g>
                        <path d="M42.2529231,0 C41.9289231,0 41.6181538,0.0556923077 41.3267692,0.154153846 C39.7243077,0.335692308 38.232,1.10523077 37.1541538,2.33569231 L23.92,17.4458462 L10.6855385,2.33569231 C9.39169231,0.857846154 7.5,0.0421538462 5.53692308,0.115076923 L5.36461538,0.121230769 C5.04461538,0.0446153846 4.71261538,0 4.36953846,0 L0,0 L0,48 L8.64,48 L8.64,13.1203077 L37.412,45.7883077 C38.6501538,47.1944615 40.4335385,48 42.3073846,48 L43.6304615,48 L43.68,48 L48,48 L48,0 L42.2529231,0 Z M29.6390769,23.9756923 L39.2,13.1203077 L39.36,13.1203077 L39.36,35.0744615 L29.6390769,23.9756923 Z" id="Fill-10" fill="url(#linearGradient-3)" mask="url(#mask-2)"></path>
                    </g>
                    <g id="Group-19" transform="translate(1.230769, 1.230769)" fill="#FCFCFC">
                        <path d="M1.23076923,46.7692308 L0,46.7692308 L0,0 L5.22553846,0 C6.20676923,0 7.14,0.423076923 7.78646154,1.16092308 L39.3846154,37.2307692 L39.5384615,8.46153846 L27.5572308,21.8735385 L26.7172308,20.9076923 L40.4615385,5.38461538 L40.4615385,38.1538462 L40.4615385,40.1538462 L7.01661538,2.22953846 C6.37015385,1.49661538 5.44030769,1.07692308 4.46307692,1.07692308 L1.07692308,1.07692308 L1.23076923,46.7692308 Z" id="Fill-13"></path>
                        <path d="M3.69230769,46.7692308 L2.33415385,46.7692308 L2.46153846,2.46153846 L4.92276923,2.46153846 C5.31415385,2.46153846 5.68646154,2.62984615 5.94523077,2.92338462 L39.2886154,40.692 C39.9396923,41.4292308 40.8633846,41.8686154 41.8461538,41.9083077 L41.8461538,3.69230769 C40.868,3.69230769 39.9375385,4.11292308 39.2910769,4.84707692 L25.908,20.0510769 L25.0784615,19.0929231 L38.6756923,3.61846154 C39.3218462,2.88307692 40.2535385,2.46153846 41.2326154,2.46153846 L43.0769231,2.46153846 L43.0769231,43.0769231 L41.3190769,43.0769231 C40.2849231,43.0769231 39.3003077,42.6329231 38.6156923,41.8572308 L5.32953846,4.15138462 C5.07107692,3.85938462 4.69969231,3.69230769 4.30984615,3.69230769 L3.69230769,3.69230769 L3.69230769,46.7692308 Z" id="Fill-15"></path>
                        <path d="M6.15384615,46.7692308 L4.92307692,46.7692308 L4.92307692,6.15384615 C5.31415385,6.15384615 5.68646154,6.32184615 5.94523077,6.61538462 L38,43.0824615 C38.6846154,43.8612308 39.6713846,44.3076923 40.7083077,44.3076923 L44.3076923,44.3076923 L44.3076923,1.23076923 L40.6212308,1.23076923 C39.6396923,1.23076923 38.7061538,1.65415385 38.0596923,2.39261538 L24.1547692,18.2793846 L23.2313846,17.1673846 L37.7556923,1.11969231 C38.4012308,0.406769231 39.3178462,0 40.2793846,0 L45.5384615,0 L45.5384615,45.5384615 L40.0975385,45.5384615 C39.0578462,45.5384615 38.0689231,45.0895385 37.384,44.3070769 L6.15384615,8.61538462 L6.15384615,46.7692308 Z" id="Fill-17"></path>
                    </g>
                </g>
            </g>
        </g>
    </g>
</svg>