<?xml version="1.0" encoding="UTF-8"?>
<svg width="24px" height="24px" viewBox="0 0 24 24" version="1.1" xmlns="http://www.w3.org/2000/svg" xmlns:xlink="http://www.w3.org/1999/xlink">
    <!-- Generator: Sketch 51.2 (57519) - http://www.bohemiancoding.com/sketch -->
    <title>Group 4 Copy</title>
    <desc>Created with Sketch.</desc>
    <defs></defs>
    <g id="Page-1" stroke="none" stroke-width="1" fill="none" fill-rule="evenodd">
        <g id="Group-4-Copy" transform="translate(-288.000000, 0.000000)" fill="#000000" fill-rule="nonzero">
            <g id="dribbble-logo" transform="translate(288.000000, 0.000000)">
                <path d="M11.9901176,0.000128342246 C5.37869519,0.000128342246 0,5.37882353 0,11.9901176 C0,18.6014118 5.37869519,23.980107 11.9901176,23.980107 C18.6015401,23.980107 23.9802353,18.6014118 23.9802353,11.9901176 C23.9802353,5.37882353 18.6015401,0.000128342246 11.9901176,0.000128342246 Z M19.8035936,5.6548877 C21.1496471,7.3117861 21.9783529,9.40312299 22.0472727,11.6828663 C19.5538396,11.1666738 17.2960428,11.2272513 15.3028877,11.6180535 C14.9419893,10.7740749 14.568385,9.9700107 14.1913155,9.21009626 C16.3619679,8.27499465 18.2516791,7.08064171 19.8035936,5.6548877 Z M18.4529198,4.28213904 C16.9124278,5.68825668 15.1271872,6.72936898 13.2992086,7.4980107 C11.9575187,5.04449198 10.6738396,3.19687701 9.89185027,2.14690909 C10.568984,2.00265241 11.270631,1.92526203 11.9901176,1.92526203 C14.4487701,1.92526203 16.7031016,2.81262032 18.4529198,4.28213904 Z M7.94746524,2.77565775 C8.53796791,3.54083422 9.94447059,5.45672727 11.4553155,8.18258824 C7.65818182,9.41967914 3.97373262,9.62810695 2.20325134,9.64748663 C2.94121925,6.56470588 5.10006417,4.02981818 7.94746524,2.77565775 Z M1.93565775,11.5774973 C1.95465241,11.5774973 1.97300535,11.5776257 1.99238503,11.5776257 C3.21574332,11.5776257 5.4571123,11.4953583 8.09582888,11.0142032 C9.60128342,10.7396791 11.0288342,10.3701818 12.3683422,9.91225668 C12.7170481,10.6072299 13.0637005,11.3403209 13.3998289,12.1087059 C11.5242353,12.7125561 9.94254545,13.5814332 8.68966845,14.4441497 C6.58870588,15.8909519 5.11687701,17.4961283 4.31319786,18.4885989 C2.82519786,16.7337754 1.92513369,14.4657112 1.92513369,11.9901176 C1.92513369,11.8517647 1.9300107,11.7145668 1.93565775,11.5774973 Z M5.7004492,19.8394011 C6.39234225,18.9682139 7.80064171,17.3825455 9.83781818,15.9911872 C11.222246,15.0455615 12.6545455,14.343016 14.1290695,13.8818824 C14.9845989,16.0993797 15.7149947,18.5495615 16.1504599,21.1511872 C14.8814118,21.729754 13.4734973,22.0549733 11.9901176,22.0549733 C9.61167914,22.0549733 7.42485561,21.2239572 5.7004492,19.8394011 Z M17.9215829,20.1145668 C17.4727701,17.7252193 16.8034652,15.4785882 16.0296898,13.425369 C17.9330053,13.1042567 19.900107,13.1704813 21.9204706,13.6242995 C21.4847487,16.2797005 20.0071444,18.5878075 17.9215829,20.1145668 Z" id="Shape"></path>
            </g>
        </g>
    </g>
</svg>