<?xml version="1.0" encoding="UTF-8"?>
<svg width="24px" height="24px" viewBox="0 0 24 24" version="1.1" xmlns="http://www.w3.org/2000/svg" xmlns:xlink="http://www.w3.org/1999/xlink">
    <!-- Generator: Sketch 51.2 (57519) - http://www.bohemiancoding.com/sketch -->
    <title>Group 4 Copy</title>
    <desc>Created with Sketch.</desc>
    <defs></defs>
    <g id="Page-1" stroke="none" stroke-width="1" fill="none" fill-rule="evenodd">
        <g id="Group-4-Copy" transform="translate(-96.000000, 0.000000)" fill="#000000" fill-rule="nonzero">
            <g id="facebook" transform="translate(96.000000, 0.000000)">
                <path d="M21.1875,0 L2.8125,0 C1.2616875,0 0,1.2616875 0,2.8125 L0,21.1875 C0,22.7383125 1.2616875,24 2.8125,24 L21.1875,24 C22.7383125,24 24,22.7383125 24,21.1875 L24,2.8125 C24,1.2616875 22.7383125,0 21.1875,0 Z M22.125,21.1875 C22.125,21.7044375 21.7044375,22.125 21.1875,22.125 L15.84375,22.125 L15.84375,14.484375 L18.7401563,14.484375 L19.21875,11.578125 L15.84375,11.578125 L15.84375,9.5625 C15.84375,8.76679688 16.4542969,8.15625 17.25,8.15625 L19.171875,8.15625 L19.171875,5.25 L17.25,5.25 C14.8629844,5.25 12.9385313,7.18359375 12.9385313,9.57065625 L12.9385313,11.578125 L10.125,11.578125 L10.125,14.484375 L12.9385313,14.484375 L12.9385313,22.125 L2.8125,22.125 C2.2955625,22.125 1.875,21.7044375 1.875,21.1875 L1.875,2.8125 C1.875,2.2955625 2.2955625,1.875 2.8125,1.875 L21.1875,1.875 C21.7044375,1.875 22.125,2.2955625 22.125,2.8125 L22.125,21.1875 Z" id="Shape"></path>
            </g>
        </g>
    </g>
</svg>