<?xml version="1.0" encoding="UTF-8"?>
<svg width="24px" height="24px" viewBox="0 0 24 24" version="1.1" xmlns="http://www.w3.org/2000/svg" xmlns:xlink="http://www.w3.org/1999/xlink">
    <!-- Generator: Sketch 51.2 (57519) - http://www.bohemiancoding.com/sketch -->
    <title>Group 4 Copy</title>
    <desc>Created with Sketch.</desc>
    <defs></defs>
    <g id="Page-1" stroke="none" stroke-width="1" fill="none" fill-rule="evenodd">
        <g id="Group-4-Copy" transform="translate(-384.000000, 0.000000)" fill="#000000" fill-rule="nonzero">
            <g id="github" transform="translate(384.000000, 0.000000)">
                <path d="M11.9985,0.0157290837 C5.373,0.0157290837 0,5.51717928 0,12.3037291 C0,17.731745 3.438,22.3366853 8.208,23.9629482 C8.808,24.0761594 9.027,23.696749 9.027,23.3708845 C9.027,23.0786773 9.0165,22.3060876 9.0105,21.2810677 C5.673,22.0230598 4.968,19.6333865 4.968,19.6333865 C4.4235,18.2136574 3.636,17.8357769 3.636,17.8357769 C2.5455,17.0738964 3.717,17.0891952 3.717,17.0891952 C4.9215,17.1763984 5.5545,18.3559363 5.5545,18.3559363 C6.6255,20.2330996 8.364,19.6915219 9.048,19.3763665 C9.156,18.5823586 9.4665,18.0407809 9.81,17.7332749 C7.146,17.4227092 4.344,16.3686215 4.344,11.6611793 C4.344,10.3194741 4.812,9.2225498 5.58,8.36275697 C5.4555,8.05219124 5.0445,6.80227888 5.697,5.11176096 C5.697,5.11176096 6.705,4.78130677 8.997,6.37085259 C9.954,6.09853386 10.98,5.9623745 12.0015,5.95778486 C13.02,5.96390438 14.0475,6.09853386 15.006,6.37238247 C17.2965,4.78283665 18.303,5.11329084 18.303,5.11329084 C18.957,6.80533865 18.546,8.05372112 18.423,8.36428685 C19.1925,9.22407968 19.656,10.321004 19.656,11.6627092 C19.656,16.3823904 16.851,17.4211793 14.178,17.7256255 C14.6085,18.1050359 14.9925,18.8546773 14.9925,20.0005578 C14.9925,21.6436494 14.9775,22.9685259 14.9775,23.3708845 C14.9775,23.6998088 15.1935,24.0822789 15.8025,23.9614183 C20.565,22.3336255 24,17.7302151 24,12.3037291 C24,5.51717928 18.627,0.0157290837 11.9985,0.0157290837 Z" id="Shape"></path>
            </g>
        </g>
    </g>
</svg>