<?xml version="1.0" encoding="UTF-8"?>
<svg width="360px" height="360px" viewBox="0 0 360 360" version="1.1" xmlns="http://www.w3.org/2000/svg" xmlns:xlink="http://www.w3.org/1999/xlink">
    <!-- Generator: Sketch 51.2 (57519) - http://www.bohemiancoding.com/sketch -->
    <title>LOGO</title>
    <desc>Created with Sketch.</desc>
    <defs>
        <path d="M316.896923,0 C314.466923,0 312.136154,0.417692308 309.950769,1.15615385 C297.932308,2.51769231 286.74,8.28923077 278.656154,17.5176923 L179.4,130.843846 L80.1415385,17.5176923 C70.4376923,6.43384615 56.25,0.316153846 41.5269231,0.863076923 L40.2346154,0.909230769 C37.8346154,0.334615385 35.3446154,0 32.7715385,0 L0,0 L0,360 L64.8,360 L64.8,98.4023077 L280.59,343.412308 C289.876154,353.958462 303.251538,360 317.305385,360 L327.228462,360 L327.6,360 L360,360 L360,0 L316.896923,0 Z M222.293077,179.817692 L294,98.4023077 L295.2,98.4023077 L295.2,263.058462 L222.293077,179.817692 Z" id="path-1"></path>
        <linearGradient x1="0%" y1="50%" x2="100%" y2="50%" id="linearGradient-3">
            <stop stop-color="#C30070" offset="0%"></stop>
            <stop stop-color="#6B49FF" offset="100%"></stop>
        </linearGradient>
    </defs>
    <g id="Page-1" stroke="none" stroke-width="1" fill="none" fill-rule="evenodd">
        <g id="Home" transform="translate(-780.000000, -420.000000)">
            <g id="LOGO" transform="translate(780.000000, 420.000000)">
                <g id="Group-9" fill="#515151">
                    <path d="M64.8002308,360 L0.000230769231,360 L0.000230769231,0 L32.7717692,0 C50.4602308,0 64.8002308,14.34 64.8002308,32.0284615 L64.8002308,360 Z" id="Fill-1"></path>
                    <path d="M360,360 L327.228462,360 C309.54,360 295.2,345.66 295.2,327.971538 L295.2,21.6969231 C295.2,9.71307692 304.915385,0 316.896923,0 L360,0 L360,360 Z" id="Fill-3"></path>
                    <path d="M32.4,1.2 L41.5269231,0.863076923 C56.2523077,0.316153846 70.4353846,6.43615385 80.1415385,17.5176923 L295.2,263.058462 L326.4,264 L327.6,360 L317.305385,360 C303.251538,360 289.876154,353.958462 280.59,343.412308 L64.8,98.4 L31.1976923,98.4 L32.4,1.2 Z" id="Fill-5"></path>
                    <path d="M327.6,98.4002308 L326.4,1.20023077 L317.270769,0.861 C302.55,0.316384615 288.364615,6.43407692 278.656154,17.5179231 L159.586154,153.466385 L201.470769,203.457923 L294,98.4002308 L327.6,98.4002308 Z" id="Fill-7"></path>
                </g>
                <g id="Group-12">
                    <mask id="mask-2" fill="white">
                        <use xlink:href="#path-1"></use>
                    </mask>
                    <g id="Clip-11"></g>
                    <path d="M316.896923,0 C314.466923,0 312.136154,0.417692308 309.950769,1.15615385 C297.932308,2.51769231 286.74,8.28923077 278.656154,17.5176923 L179.4,130.843846 L80.1415385,17.5176923 C70.4376923,6.43384615 56.25,0.316153846 41.5269231,0.863076923 L40.2346154,0.909230769 C37.8346154,0.334615385 35.3446154,0 32.7715385,0 L0,0 L0,360 L64.8,360 L64.8,98.4023077 L280.59,343.412308 C289.876154,353.958462 303.251538,360 317.305385,360 L327.228462,360 L327.6,360 L360,360 L360,0 L316.896923,0 Z M222.293077,179.817692 L294,98.4023077 L295.2,98.4023077 L295.2,263.058462 L222.293077,179.817692 Z" id="Fill-10" fill="url(#linearGradient-3)" mask="url(#mask-2)"></path>
                </g>
                <g id="Group-19" transform="translate(9.230769, 9.230769)" fill="#FCFCFC">
                    <path d="M9.23076923,350.769231 L0,350.769231 L0,0 L39.1915385,0 C46.5507692,0 53.55,3.17307692 58.3984615,8.70692308 L295.384615,279.230769 L296.538462,63.4615385 L206.679231,164.051538 L200.379231,156.807692 L303.461538,40.3846154 L303.461538,286.153846 L303.461538,301.153846 L52.6246154,16.7215385 C47.7761538,11.2246154 40.8023077,8.07692308 33.4730769,8.07692308 L8.07692308,8.07692308 L9.23076923,350.769231 Z" id="Fill-13"></path>
                    <path d="M27.6923077,350.769231 L17.5061538,350.769231 L18.4615385,18.4615385 L36.9207692,18.4615385 C39.8561538,18.4615385 42.6484615,19.7238462 44.5892308,21.9253846 L294.664615,305.19 C299.547692,310.719231 306.475385,314.014615 313.846154,314.312308 L313.846154,27.6923077 C306.51,27.6923077 299.531538,30.8469231 294.683077,36.3530769 L194.31,150.383077 L188.088462,143.196923 L290.067692,27.1384615 C294.913846,21.6230769 301.901538,18.4615385 309.244615,18.4615385 L323.076923,18.4615385 L323.076923,323.076923 L309.893077,323.076923 C302.136923,323.076923 294.752308,319.746923 289.617692,313.929231 L39.9715385,31.1353846 C38.0330769,28.9453846 35.2476923,27.6923077 32.3238462,27.6923077 L27.6923077,27.6923077 L27.6923077,350.769231 Z" id="Fill-15"></path>
                    <path d="M46.1538462,350.769231 L36.9230769,350.769231 L36.9230769,46.1538462 C39.8561538,46.1538462 42.6484615,47.4138462 44.5892308,49.6153846 L285,323.118462 C290.134615,328.959231 297.535385,332.307692 305.312308,332.307692 L332.307692,332.307692 L332.307692,9.23076923 L304.659231,9.23076923 C297.297692,9.23076923 290.296154,12.4061538 285.447692,17.9446154 L181.160769,137.095385 L174.235385,128.755385 L283.167692,8.39769231 C288.009231,3.05076923 294.883846,0 302.095385,0 L341.538462,0 L341.538462,341.538462 L300.731538,341.538462 C292.933846,341.538462 285.516923,338.171538 280.38,332.303077 L46.1538462,64.6153846 L46.1538462,350.769231 Z" id="Fill-17"></path>
                </g>
            </g>
        </g>
    </g>
</svg>